<svg width="811" height="567" viewBox="0 0 811 567" fill="none" xmlns="http://www.w3.org/2000/svg">
<g clip-path="url(#clip0_3_396)">
<path d="M0.276465 49.106C2.91271 71.5404 21.4019 89.3049 25.7885 111.463C26.3384 114.367 26.6747 117.309 26.7948 120.263C27.4255 132.989 24.9098 145.977 26.2066 158.723C28.6232 182.627 43.1296 201.307 61.5479 217.496C75.4803 229.71 91.6522 240.455 106.527 250.853C144.398 277.347 179.917 310.796 195.472 354.359C205.84 383.408 206.634 414.977 214.245 444.87C221.856 474.764 239.19 505.353 268.486 514.885C299.93 525.119 334.577 508.057 366.934 514.8C401.659 522.039 426.285 554.906 460.549 564.19C504.083 575.985 547.468 547 592.156 540.96C613.615 538.057 635.456 540.52 657.028 538.661C681.041 536.569 704.293 529.171 725.109 517C732.196 512.834 739.361 507.717 742.656 500.151C745.491 493.614 745.059 486.162 744.187 479.086C740.927 452.826 732.678 424.281 745.654 401.201C757.623 379.909 786.629 364.679 782.327 340.64C779.741 326.169 765.539 317.134 752.372 310.654C725.216 297.29 696.288 286.829 672.016 268.78C654.654 255.849 639.701 237.808 633.323 217.517C630.708 209.404 629.631 200.873 630.148 192.364C631.041 178.95 635.676 163.89 627.597 153.152C624.096 148.496 618.731 145.636 613.338 143.45C593 135.217 570.407 134.742 549.261 128.893C542.01 126.911 535.042 124.011 528.525 120.263C515.627 112.783 505.245 101.761 502.736 87.3744C501.27 78.9429 502.573 69.7377 498.371 62.2856C491.284 49.6525 477.274 44.3721 461.627 42.6546C442.259 40.5254 420.325 43.854 405.642 45.4935L404.175 45.6497C385.317 47.6156 366.615 43.4353 348.24 37.1329C328.397 30.3834 309.001 21.1996 290.129 14.6701C288.357 14.055 286.59 13.466 284.828 12.9029C271.052 8.50642 256.947 5.21939 242.648 3.0732C222.482 0.0332954 202.042 -0.756967 181.703 0.716908C171.387 1.46127 161.123 2.79775 150.961 4.71976C147.975 5.28754 144.994 5.89554 142.017 6.54376C124.712 10.2556 107.498 14.7908 89.845 15.0605C88.5765 15.0605 87.3009 15.0605 86.0324 15.0605C64.9779 14.6985 43.4485 9.34008 23.4712 15.8128C14.386 18.7723 5.67652 24.5921 2.01979 33.4211C-0.0140893 38.3395 -0.340076 43.8257 0.276465 49.106Z" fill="#764FD0"/>
<path opacity="0.2" d="M26.7947 120.263H44.9862C45.2576 115.553 46.902 111.025 49.7158 107.241C52.5296 103.457 56.3895 100.582 60.8179 98.9713C57.5121 97.1486 54.9055 94.2766 53.4084 90.8074C51.9113 87.3383 51.6087 83.469 52.5483 79.8087C53.4879 76.1484 55.6163 72.9051 58.5984 70.5892C61.5806 68.2733 65.2471 67.0164 69.0207 67.0164C72.7944 67.0164 76.4609 68.2733 79.443 70.5892C82.4251 72.9051 84.5535 76.1484 85.4931 79.8087C86.4327 83.469 86.1301 87.3383 84.633 90.8074C83.1359 94.2766 80.5293 97.1486 77.2236 98.9713C81.652 100.582 85.5118 103.457 88.3256 107.241C91.1395 111.025 92.7838 115.553 93.0552 120.263H93.2111C93.6113 115.682 95.31 111.311 98.1073 107.665C100.905 104.019 104.684 101.249 109 99.681C106.488 98.2959 104.366 96.2971 102.832 93.8704C101.298 91.4438 100.402 88.668 100.226 85.8013C100.051 82.9346 100.602 80.0699 101.829 77.4738C103.055 74.8777 104.917 72.6343 107.242 70.9523C109.567 69.2703 112.278 68.2043 115.124 67.8534C117.971 67.5024 120.859 67.878 123.522 68.9452C126.184 70.0124 128.534 71.7365 130.353 73.9572C132.172 76.1779 133.4 78.8231 133.924 81.6469C136.008 79.9435 138.363 78.6024 140.89 77.6795C137.585 75.8568 134.978 72.9848 133.481 69.5156C131.984 66.0465 131.681 62.1772 132.621 58.5169C133.56 54.8567 135.689 51.6133 138.671 49.2974C141.653 46.9815 145.319 45.7246 149.093 45.7246C152.867 45.7246 156.533 46.9815 159.515 49.2974C162.498 51.6133 164.626 54.8567 165.566 58.5169C166.505 62.1772 166.203 66.0465 164.705 69.5156C163.208 72.9848 160.602 75.8568 157.296 77.6795C161.955 79.3696 165.98 82.457 168.823 86.5212C171.666 90.5853 173.189 95.4284 173.184 100.391V120.263H180.98V104.649C180.975 99.6868 182.498 94.8436 185.341 90.7795C188.184 86.7154 192.209 83.628 196.868 81.9379C193.562 80.1151 190.956 77.2431 189.459 73.774C187.961 70.3048 187.659 66.4356 188.598 62.7753C189.538 59.115 191.666 55.8716 194.649 53.5558C197.631 51.2399 201.297 49.983 205.071 49.983C208.845 49.983 212.511 51.2399 215.493 53.5558C218.475 55.8716 220.604 59.115 221.543 62.7753C222.483 66.4356 222.18 70.3048 220.683 73.774C219.186 77.2431 216.579 80.1151 213.274 81.9379C216.354 83.0616 219.174 84.8013 221.562 87.0513C223.95 89.3012 225.856 92.0142 227.164 95.0252C230.014 90.967 234.042 87.8848 238.701 86.1962C235.395 84.3735 232.788 81.5015 231.291 78.0323C229.794 74.5632 229.492 70.6939 230.431 67.0336C231.371 63.3734 233.499 60.13 236.481 57.8141C239.463 55.4982 243.13 54.2413 246.904 54.2413C250.677 54.2413 254.344 55.4982 257.326 57.8141C260.308 60.13 262.436 63.3734 263.376 67.0336C264.316 70.6939 264.013 74.5632 262.516 78.0323C261.019 81.5015 258.412 84.3735 255.106 86.1962C260.243 88.0679 264.595 91.6281 267.451 96.2956V93.2935C267.447 88.3311 268.97 83.488 271.813 79.4239C274.656 75.3598 278.681 72.2724 283.34 70.5822C280.034 68.7595 277.427 65.8875 275.93 62.4184C274.433 58.9492 274.131 55.0799 275.07 51.4197C276.01 47.7594 278.138 44.516 281.12 42.2001C284.102 39.8842 287.769 38.6274 291.543 38.6274C295.316 38.6274 298.983 39.8842 301.965 42.2001C304.947 44.516 307.075 47.7594 308.015 51.4197C308.955 55.0799 308.652 58.9492 307.155 62.4184C305.658 65.8875 303.051 68.7595 299.745 70.5822C304.404 72.2724 308.429 75.3598 311.272 79.4239C314.116 83.488 315.639 88.3311 315.634 93.2935V120.263H324.138C325.463 117.324 327.361 114.68 329.72 112.486C332.08 110.292 334.854 108.593 337.879 107.488C334.573 105.665 331.966 102.793 330.469 99.3241C328.972 95.855 328.67 91.9857 329.609 88.3254C330.549 84.6652 332.677 81.4218 335.659 79.1059C338.642 76.79 342.308 75.5331 346.082 75.5331C349.855 75.5331 353.522 76.79 356.504 79.1059C359.486 81.4218 361.615 84.6652 362.554 88.3254C363.494 91.9857 363.191 95.855 361.694 99.3241C360.197 102.793 357.59 105.665 354.285 107.488C355.965 108.099 357.572 108.897 359.075 109.866C359.674 105.505 361.452 101.391 364.218 97.9692C366.983 94.5477 370.631 91.9491 374.765 90.4546C371.459 88.6318 368.853 85.7598 367.356 82.2907C365.858 78.8215 365.556 74.9523 366.495 71.292C367.435 67.6317 369.563 64.3884 372.546 62.0725C375.528 59.7566 379.194 58.4997 382.968 58.4997C386.742 58.4997 390.408 59.7566 393.39 62.0725C396.372 64.3884 398.501 67.6317 399.44 71.292C400.38 74.9523 400.077 78.8215 398.58 82.2907C397.083 85.7598 394.476 88.6318 391.171 90.4546C394.721 91.7531 397.917 93.8681 400.501 96.6293C403.086 99.3906 404.988 102.721 406.053 106.352C408.712 103.347 412.078 101.054 415.847 99.681C412.541 97.8583 409.934 94.9863 408.437 91.5171C406.94 88.048 406.637 84.1787 407.577 80.5184C408.517 76.8582 410.645 73.6148 413.627 71.2989C416.609 68.983 420.276 67.7261 424.049 67.7261C427.823 67.7261 431.489 68.983 434.472 71.2989C437.454 73.6148 439.582 76.8582 440.522 80.5184C441.461 84.1787 441.159 88.048 439.662 91.5171C438.165 94.9863 435.558 97.8583 432.252 99.681C434.852 100.631 437.269 102.024 439.396 103.797C440.69 100.725 442.605 97.9542 445.02 95.6581C447.434 93.3621 450.297 91.5905 453.427 90.4546C450.121 88.6318 447.515 85.7598 446.018 82.2907C444.521 78.8215 444.218 74.9523 445.158 71.292C446.097 67.6317 448.226 64.3884 451.208 62.0725C454.19 59.7566 457.856 58.4997 461.63 58.4997C465.404 58.4997 469.07 59.7566 472.052 62.0725C475.034 64.3884 477.163 67.6317 478.102 71.292C479.042 74.9523 478.739 78.8215 477.242 82.2907C475.745 85.7598 473.139 88.6318 469.833 90.4546C474.492 92.1447 478.517 95.2321 481.36 99.2962C484.203 103.36 485.726 108.203 485.721 113.166V120.263H528.525C535.04 124.008 542.006 126.906 549.253 128.886C570.4 134.734 592.992 135.21 613.331 143.443C618.724 145.629 624.089 148.489 627.59 153.145C635.668 163.883 631.034 178.943 630.141 192.357C629.619 200.86 630.688 209.386 633.294 217.496H61.5478C43.1224 201.342 28.6231 182.627 26.2065 158.723C24.9451 145.984 27.4254 132.996 26.7947 120.263Z" fill="black"/>
<path d="M704.345 54.6276V329.994L690.172 320.768V54.6276H681.668L678.125 311.541L664.66 301.605L673.873 51.079" stroke="#E0E0E0" stroke-miterlimit="10"/>
<path d="M722.069 74.4999L664.667 77.6937" stroke="#E0E0E0" stroke-miterlimit="10"/>
<path d="M718.526 88.6944L664.667 90.8236" stroke="#E0E0E0" stroke-miterlimit="10"/>
<path d="M718.526 105.728L664.667 107.147" stroke="#E0E0E0" stroke-miterlimit="10"/>
<path d="M718.526 121.342L664.667 123.471" stroke="#E0E0E0" stroke-miterlimit="10"/>
<path d="M718.526 139.085H662.541" stroke="#E0E0E0" stroke-miterlimit="10"/>
<path d="M718.526 156.828L661.124 154.699" stroke="#E0E0E0" stroke-miterlimit="10"/>
<path d="M718.526 173.152L661.124 170.313" stroke="#E0E0E0" stroke-miterlimit="10"/>
<path d="M718.526 190.895L661.124 186.637" stroke="#E0E0E0" stroke-miterlimit="10"/>
<path d="M719.943 206.509L658.998 200.831" stroke="#E0E0E0" stroke-miterlimit="10"/>
<path d="M719.943 224.252L658.998 215.026" stroke="#E0E0E0" stroke-miterlimit="10"/>
<path d="M719.943 244.834L656.872 233.479" stroke="#E0E0E0" stroke-miterlimit="10"/>
<path d="M719.943 268.255L656.872 249.802" stroke="#E0E0E0" stroke-miterlimit="10"/>
<path d="M721.36 292.386L654.746 266.126" stroke="#E0E0E0" stroke-miterlimit="10"/>
<path d="M721.36 314.387L654.746 281.74" stroke="#E0E0E0" stroke-miterlimit="10"/>
<path d="M649.069 53.9179L637.731 295.927H622.849L632.061 53.9179H615.762L605.132 295.927H588.832L598.045 53.9179H578.202L571.116 295.927H553.399L561.194 56.0471H542.769L538.517 295.927H522.218L527.178 53.9179H510.879L507.336 295.927H491.745L495.288 53.9179H476.863V295.927H458.438V53.9179H441.429L444.264 295.927H429.382L425.13 53.9179H408.122L413.791 295.927H398.909L391.823 53.9179H376.941L382.61 295.927H369.145L358.515 53.9179H344.342L355.681 295.927H341.507L325.917 53.9179H308.908L328.751 295.927H315.287L296.152 53.9179H282.688L302.53 295.927H287.648L268.514 51.079H255.05L277.018 295.927H262.845L240.168 51.079" stroke="#E0E0E0" stroke-miterlimit="10"/>
<path d="M208.278 54.6276L229.538 300.186L218.908 308.702L202.608 54.6276H191.27L202.608 317.929L186.309 328.575L179.938 51.079" stroke="#E0E0E0" stroke-miterlimit="10"/>
<path d="M164.347 82.3069H229.545" stroke="#E0E0E0" stroke-miterlimit="10"/>
<path d="M164.347 100.05H229.545" stroke="#E0E0E0" stroke-miterlimit="10"/>
<path d="M164.347 119.922L229.545 117.793" stroke="#E0E0E0" stroke-miterlimit="10"/>
<path d="M164.347 136.956L232.379 133.407" stroke="#E0E0E0" stroke-miterlimit="10"/>
<path d="M164.347 156.118L232.379 153.279" stroke="#E0E0E0" stroke-miterlimit="10"/>
<path d="M164.347 176.7L235.214 173.152" stroke="#E0E0E0" stroke-miterlimit="10"/>
<path d="M164.347 196.573L235.214 189.476" stroke="#E0E0E0" stroke-miterlimit="10"/>
<path d="M164.347 219.284L235.214 202.251" stroke="#E0E0E0" stroke-miterlimit="10"/>
<path d="M164.347 239.156L238.049 214.316" stroke="#E0E0E0" stroke-miterlimit="10"/>
<path d="M164.347 259.738L238.049 231.349" stroke="#E0E0E0" stroke-miterlimit="10"/>
<path d="M162.221 279.611L235.59 248.773" stroke="#E0E0E0" stroke-miterlimit="10"/>
<path d="M162.221 302.322L238.049 263.997" stroke="#E0E0E0" stroke-miterlimit="10"/>
<path d="M162.221 322.904L240.175 279.611" stroke="#E0E0E0" stroke-miterlimit="10"/>
<path d="M664.667 74.4999L229.545 78.0486" stroke="#E0E0E0" stroke-miterlimit="10"/>
<path d="M664.313 87.275L229.19 90.8236" stroke="#E0E0E0" stroke-miterlimit="10"/>
<path d="M663.958 100.05L228.836 103.599" stroke="#E0E0E0" stroke-miterlimit="10"/>
<path d="M663.604 112.825L228.482 116.374" stroke="#E0E0E0" stroke-miterlimit="10"/>
<path d="M663.25 125.6L228.127 129.149" stroke="#E0E0E0" stroke-miterlimit="10"/>
<path d="M662.895 138.375L233.442 141.924" stroke="#E0E0E0" stroke-miterlimit="10"/>
<path d="M662.541 151.15L233.088 154.699" stroke="#E0E0E0" stroke-miterlimit="10"/>
<path d="M662.187 163.925L232.734 167.474" stroke="#E0E0E0" stroke-miterlimit="10"/>
<path d="M661.832 176.7L232.379 180.249" stroke="#E0E0E0" stroke-miterlimit="10"/>
<path d="M661.478 189.476L236.277 193.024" stroke="#E0E0E0" stroke-miterlimit="10"/>
<path d="M661.124 202.251L235.923 205.799" stroke="#E0E0E0" stroke-miterlimit="10"/>
<path d="M660.769 215.026L235.568 218.574" stroke="#E0E0E0" stroke-miterlimit="10"/>
<path d="M660.415 227.801L238.049 231.349" stroke="#E0E0E0" stroke-miterlimit="10"/>
<path d="M660.061 240.576L237.694 244.124" stroke="#E0E0E0" stroke-miterlimit="10"/>
<path d="M659.706 253.351L239.466 256.899" stroke="#E0E0E0" stroke-miterlimit="10"/>
<path d="M659.352 266.126L239.112 269.675" stroke="#E0E0E0" stroke-miterlimit="10"/>
<path d="M658.998 278.901L238.757 282.45" stroke="#E0E0E0" stroke-miterlimit="10"/>
<path d="M721.353 342.059L656.865 295.927H238.042L164.347 342.059" stroke="#E0E0E0" stroke-width="3" stroke-miterlimit="10"/>
<path d="M725.357 292.144C725.357 292.144 726.994 243.699 753.158 216.339C764.211 204.928 771.268 190.235 773.27 174.465C774.164 166.974 774.37 159.417 773.887 151.888" stroke="#535461" stroke-width="2" stroke-miterlimit="10"/>
<path d="M790.271 134.55C788.478 139.958 773.511 152.392 773.511 152.392C773.511 152.392 768.926 133.457 770.719 128.049C771.607 125.487 773.466 123.378 775.895 122.178C778.323 120.978 781.126 120.784 783.696 121.637C786.267 122.49 788.398 124.323 789.63 126.738C790.862 129.153 791.095 131.957 790.278 134.543L790.271 134.55Z" fill="#764FD0"/>
<path d="M796.515 169.88C792.079 173.429 772.76 175.735 772.76 175.735C772.76 175.735 779.188 157.346 783.624 153.783C784.675 152.901 785.892 152.238 787.203 151.833C788.514 151.428 789.892 151.289 791.257 151.424C792.622 151.56 793.946 151.967 795.152 152.621C796.358 153.276 797.421 154.165 798.28 155.237C799.138 156.309 799.774 157.541 800.15 158.862C800.527 160.183 800.636 161.566 800.471 162.93C800.307 164.294 799.872 165.611 799.193 166.805C798.513 167.998 797.603 169.044 796.515 169.88Z" fill="#764FD0"/>
<path d="M778.855 220.845C773.228 221.676 755.398 213.89 755.398 213.89C755.398 213.89 770.216 201.264 775.843 200.405C778.514 200.073 781.209 200.8 783.352 202.432C785.495 204.064 786.914 206.47 787.308 209.137C787.701 211.804 787.037 214.519 785.458 216.702C783.878 218.885 781.508 220.362 778.855 220.817V220.845Z" fill="#764FD0"/>
<path d="M756.822 256.388C751.415 258.163 732.529 253.5 732.529 253.5C732.529 253.5 745.002 238.553 750.409 236.772C751.702 236.319 753.073 236.129 754.441 236.213C755.808 236.298 757.145 236.654 758.374 237.262C759.602 237.87 760.697 238.717 761.594 239.754C762.492 240.791 763.174 241.997 763.6 243.301C764.027 244.605 764.189 245.981 764.078 247.349C763.967 248.717 763.585 250.049 762.954 251.267C762.323 252.485 761.455 253.564 760.403 254.443C759.35 255.321 758.133 255.98 756.822 256.381V256.388Z" fill="#764FD0"/>
<path d="M751.876 169.944C754.505 174.997 771.258 184.898 771.258 184.898C771.258 184.898 772.781 165.48 770.159 160.419C769.535 159.217 768.68 158.15 767.644 157.278C766.607 156.407 765.41 155.748 764.119 155.34C762.829 154.932 761.471 154.783 760.123 154.901C758.775 155.018 757.463 155.401 756.262 156.026C755.062 156.652 753.996 157.508 753.126 158.545C752.256 159.583 751.598 160.783 751.191 162.075C750.784 163.367 750.634 164.728 750.752 166.078C750.869 167.428 751.251 168.742 751.876 169.944Z" fill="#764FD0"/>
<path d="M726.64 211.86C730.658 215.899 749.601 220.32 749.601 220.32C749.601 220.32 745.257 201.335 741.239 197.297C739.3 195.409 736.698 194.36 733.993 194.376C731.289 194.392 728.7 195.473 726.784 197.384C724.868 199.296 723.779 201.885 723.752 204.593C723.725 207.301 724.763 209.911 726.64 211.86Z" fill="#764FD0"/>
<path d="M707.69 255.956C710.964 260.611 728.894 268.177 728.894 268.177C728.894 268.177 727.816 248.723 724.535 244.046C723.762 242.925 722.774 241.968 721.628 241.231C720.483 240.494 719.204 239.992 717.864 239.753C716.524 239.514 715.15 239.544 713.821 239.84C712.493 240.136 711.236 240.692 710.123 241.478C709.011 242.263 708.064 243.261 707.339 244.414C706.614 245.568 706.124 246.854 705.898 248.198C705.671 249.542 705.713 250.918 706.021 252.246C706.329 253.574 706.896 254.827 707.69 255.934V255.956Z" fill="#764FD0"/>
<path d="M735.987 335.438C735.987 335.438 737.624 286.992 763.788 259.632C774.841 248.222 781.898 233.528 783.9 217.758C784.794 210.267 785 202.71 784.517 195.182" stroke="#535461" stroke-width="2" stroke-miterlimit="10"/>
<path d="M800.901 177.843C799.108 183.251 784.141 195.686 784.141 195.686C784.141 195.686 779.556 176.75 781.349 171.342C782.237 168.78 784.096 166.671 786.525 165.471C788.953 164.271 791.756 164.077 794.326 164.93C796.897 165.784 799.028 167.616 800.26 170.031C801.492 172.446 801.725 175.25 800.908 177.836L800.901 177.843Z" fill="#764FD0"/>
<path d="M807.145 213.173C802.709 216.722 783.39 219.029 783.39 219.029C783.39 219.029 789.818 200.64 794.254 197.077C795.305 196.194 796.522 195.531 797.833 195.126C799.144 194.721 800.522 194.582 801.887 194.718C803.252 194.853 804.576 195.26 805.782 195.915C806.988 196.569 808.051 197.459 808.91 198.53C809.768 199.602 810.404 200.834 810.78 202.155C811.157 203.477 811.266 204.86 811.101 206.223C810.937 207.587 810.502 208.905 809.823 210.098C809.143 211.291 808.233 212.337 807.145 213.173Z" fill="#764FD0"/>
<path d="M789.485 264.139C783.858 264.969 766.028 257.183 766.028 257.183C766.028 257.183 780.846 244.557 786.473 243.699C789.144 243.366 791.839 244.093 793.982 245.725C796.125 247.357 797.544 249.764 797.938 252.431C798.331 255.097 797.667 257.813 796.088 259.995C794.508 262.178 792.138 263.655 789.485 264.11V264.139Z" fill="#764FD0"/>
<path d="M767.452 299.682C762.045 301.456 743.159 296.793 743.159 296.793C743.159 296.793 755.632 281.846 761.039 280.065C762.332 279.612 763.703 279.422 765.071 279.507C766.438 279.591 767.775 279.947 769.004 280.555C770.232 281.163 771.327 282.011 772.224 283.048C773.122 284.085 773.804 285.29 774.23 286.595C774.657 287.899 774.819 289.275 774.708 290.642C774.597 292.01 774.215 293.342 773.584 294.56C772.953 295.778 772.085 296.858 771.033 297.736C769.98 298.614 768.763 299.273 767.452 299.675V299.682Z" fill="#764FD0"/>
<path d="M762.506 213.237C765.135 218.29 781.888 228.191 781.888 228.191C781.888 228.191 783.411 208.773 780.789 203.713C779.528 201.284 777.356 199.457 774.749 198.634C772.143 197.81 769.317 198.056 766.892 199.319C764.468 200.582 762.644 202.758 761.821 205.368C760.998 207.978 761.245 210.809 762.506 213.237Z" fill="#764FD0"/>
<path d="M737.27 255.154C741.288 259.192 760.231 263.613 760.231 263.613C760.231 263.613 755.887 244.628 751.869 240.59C749.93 238.702 747.328 237.653 744.623 237.669C741.919 237.686 739.33 238.766 737.414 240.678C735.498 242.589 734.409 245.178 734.382 247.886C734.355 250.594 735.392 253.204 737.27 255.154Z" fill="#764FD0"/>
<path d="M718.32 299.249C721.594 303.905 739.524 311.47 739.524 311.47C739.524 311.47 738.446 292.017 735.165 287.34C734.392 286.218 733.404 285.261 732.259 284.525C731.113 283.788 729.834 283.285 728.494 283.046C727.154 282.808 725.78 282.837 724.451 283.133C723.123 283.429 721.866 283.986 720.753 284.771C719.641 285.556 718.694 286.554 717.969 287.708C717.244 288.861 716.754 290.147 716.528 291.491C716.302 292.835 716.343 294.211 716.651 295.539C716.959 296.867 717.526 298.12 718.32 299.228V299.249Z" fill="#764FD0"/>
<path d="M154.065 76.5085C154.412 62.7753 163.908 50.7099 177.309 47.7645L177.692 47.6865C178.233 47.5784 178.784 47.5261 179.336 47.5303H709.703C713.62 47.4984 717.478 48.4832 720.902 50.3886C724.326 52.2941 727.199 55.0554 729.241 58.4033L729.376 58.6375C730.155 60.0076 730.575 61.5534 730.594 63.1301L735.52 342.052H718.512L712.842 69.5176C712.842 69.5176 712.842 61.7107 705.756 61.0009C704.671 60.8945 691.519 60.8164 670.032 60.7667L657.573 296.637H650.487L664.341 60.7596C569.876 60.5751 338.658 60.8093 231.345 60.9371L245.107 295.218H238.02L225.661 60.9442L184.814 60.9938C181.818 60.9958 178.876 61.7829 176.279 63.2771C173.681 64.7712 171.52 66.9203 170.01 69.5106L164.34 342.045H147.332L154.065 76.5085Z" fill="#E0E0E0"/>
<path d="M147.24 347.801C147.24 347.801 144.944 310.285 163.135 287.233C170.828 277.614 175.197 265.754 175.587 253.436C175.724 247.583 175.326 241.729 174.396 235.948" stroke="#535461" stroke-width="2" stroke-miterlimit="10"/>
<path d="M185.777 221.371C184.792 225.679 174.148 236.381 174.148 236.381C174.148 236.381 169.187 222.102 170.201 217.801C170.434 216.775 170.866 215.806 171.472 214.948C172.079 214.09 172.848 213.36 173.737 212.8C174.625 212.24 175.615 211.86 176.65 211.683C177.685 211.506 178.744 211.535 179.768 211.768C180.792 212.001 181.759 212.434 182.616 213.041C183.473 213.649 184.202 214.42 184.761 215.309C185.32 216.199 185.699 217.19 185.876 218.227C186.053 219.263 186.024 220.324 185.792 221.349L185.777 221.371Z" fill="#764FD0"/>
<path d="M193.19 248.184C190.022 251.264 175.282 254.458 175.282 254.458C175.282 254.458 178.889 239.788 182.057 236.715C182.809 235.983 183.698 235.406 184.673 235.018C185.648 234.63 186.69 234.438 187.739 234.453C188.788 234.469 189.823 234.691 190.787 235.107C191.75 235.523 192.622 236.125 193.353 236.878C194.084 237.632 194.66 238.522 195.047 239.498C195.435 240.475 195.626 241.518 195.611 242.568C195.596 243.619 195.374 244.656 194.959 245.621C194.544 246.586 193.943 247.459 193.19 248.191V248.184Z" fill="#764FD0"/>
<path d="M183.304 288.823C179.052 289.88 164.687 285.182 164.687 285.182C164.687 285.182 175.183 274.345 179.477 273.287C181.534 272.779 183.709 273.11 185.522 274.207C187.336 275.305 188.64 277.079 189.147 279.139C189.655 281.199 189.324 283.377 188.228 285.193C187.133 287.009 185.361 288.315 183.304 288.823Z" fill="#764FD0"/>
<path d="M168.904 317.886C164.858 319.653 149.94 317.446 149.94 317.446C149.94 317.446 158.444 304.983 162.512 303.252C163.477 302.807 164.521 302.559 165.583 302.523C166.646 302.487 167.704 302.664 168.697 303.043C169.69 303.423 170.597 303.996 171.366 304.731C172.135 305.466 172.749 306.347 173.174 307.323C173.598 308.299 173.824 309.349 173.838 310.413C173.852 311.478 173.653 312.534 173.254 313.52C172.855 314.507 172.264 315.403 171.514 316.158C170.765 316.913 169.873 317.51 168.89 317.915L168.904 317.886Z" fill="#764FD0"/>
<path d="M158.742 251.562C161.137 255.274 174.8 261.676 174.8 261.676C174.8 261.676 174.552 246.573 172.15 242.861C170.998 241.08 169.186 239.831 167.114 239.388C165.042 238.945 162.88 239.344 161.102 240.498C159.324 241.652 158.076 243.466 157.633 245.541C157.191 247.616 157.59 249.782 158.742 251.562Z" fill="#764FD0"/>
<path d="M142.336 285.736C145.731 288.575 160.683 290.576 160.683 290.576C160.683 290.576 155.935 276.24 152.534 273.415C151.726 272.744 150.794 272.24 149.792 271.93C148.789 271.62 147.735 271.51 146.691 271.608C145.646 271.706 144.631 272.009 143.703 272.5C142.775 272.991 141.953 273.66 141.284 274.469C140.614 275.278 140.11 276.211 139.801 277.215C139.491 278.219 139.382 279.274 139.48 280.32C139.578 281.367 139.88 282.383 140.37 283.313C140.86 284.242 141.528 285.065 142.336 285.736Z" fill="#764FD0"/>
<path d="M130.948 321.172C133.818 324.529 148.211 329.05 148.211 329.05C148.211 329.05 145.95 314.146 143.073 310.761C141.694 309.149 139.731 308.153 137.618 307.99C135.505 307.828 133.414 308.513 131.805 309.895C130.196 311.276 129.201 313.241 129.039 315.358C128.877 317.474 129.561 319.568 130.941 321.179L130.948 321.172Z" fill="#764FD0"/>
<path opacity="0.5" d="M185.777 221.371C184.792 225.679 174.148 236.381 174.148 236.381C174.148 236.381 169.187 222.102 170.201 217.801C170.434 216.775 170.866 215.806 171.472 214.948C172.079 214.09 172.848 213.36 173.737 212.8C174.625 212.24 175.615 211.86 176.65 211.683C177.685 211.506 178.744 211.535 179.768 211.768C180.792 212.001 181.759 212.434 182.616 213.041C183.473 213.649 184.202 214.42 184.761 215.309C185.32 216.199 185.699 217.19 185.876 218.227C186.053 219.263 186.024 220.324 185.792 221.349L185.777 221.371Z" fill="white"/>
<path opacity="0.5" d="M193.19 248.184C190.022 251.264 175.282 254.458 175.282 254.458C175.282 254.458 178.889 239.788 182.057 236.715C182.809 235.983 183.698 235.406 184.673 235.018C185.648 234.63 186.69 234.438 187.739 234.453C188.788 234.469 189.823 234.691 190.787 235.107C191.75 235.523 192.622 236.125 193.353 236.878C194.084 237.632 194.66 238.522 195.047 239.498C195.435 240.475 195.626 241.518 195.611 242.568C195.596 243.619 195.374 244.656 194.959 245.621C194.544 246.586 193.943 247.459 193.19 248.191V248.184Z" fill="white"/>
<path opacity="0.5" d="M183.304 288.823C179.052 289.88 164.687 285.182 164.687 285.182C164.687 285.182 175.183 274.345 179.477 273.287C181.534 272.779 183.709 273.11 185.522 274.207C187.336 275.305 188.64 277.079 189.147 279.139C189.655 281.199 189.324 283.377 188.228 285.193C187.133 287.009 185.361 288.315 183.304 288.823Z" fill="white"/>
<path opacity="0.5" d="M168.904 317.886C164.858 319.653 149.94 317.446 149.94 317.446C149.94 317.446 158.444 304.983 162.512 303.252C163.477 302.807 164.521 302.559 165.583 302.523C166.646 302.487 167.704 302.664 168.697 303.043C169.69 303.423 170.597 303.996 171.366 304.731C172.135 305.466 172.749 306.347 173.174 307.323C173.598 308.299 173.824 309.349 173.838 310.413C173.852 311.478 173.653 312.534 173.254 313.52C172.855 314.507 172.264 315.403 171.514 316.158C170.765 316.913 169.873 317.51 168.89 317.915L168.904 317.886Z" fill="white"/>
<path opacity="0.5" d="M158.742 251.562C161.137 255.274 174.8 261.676 174.8 261.676C174.8 261.676 174.552 246.573 172.15 242.861C170.998 241.08 169.186 239.831 167.114 239.388C165.042 238.945 162.88 239.344 161.102 240.498C159.324 241.652 158.076 243.466 157.633 245.541C157.191 247.616 157.59 249.782 158.742 251.562Z" fill="white"/>
<path opacity="0.5" d="M142.336 285.736C145.731 288.575 160.683 290.576 160.683 290.576C160.683 290.576 155.935 276.24 152.534 273.415C151.726 272.744 150.794 272.24 149.792 271.93C148.789 271.62 147.735 271.51 146.691 271.608C145.646 271.706 144.631 272.009 143.703 272.5C142.775 272.991 141.953 273.66 141.284 274.469C140.614 275.278 140.11 276.211 139.801 277.215C139.491 278.219 139.382 279.274 139.48 280.32C139.578 281.367 139.88 282.383 140.37 283.313C140.86 284.242 141.528 285.065 142.336 285.736Z" fill="white"/>
<path opacity="0.5" d="M130.948 321.172C133.818 324.529 148.211 329.05 148.211 329.05C148.211 329.05 145.95 314.146 143.073 310.761C141.694 309.149 139.731 308.153 137.618 307.99C135.505 307.828 133.414 308.513 131.805 309.895C130.196 311.276 129.201 313.241 129.039 315.358C128.877 317.474 129.561 319.568 130.941 321.179L130.948 321.172Z" fill="white"/>
<g opacity="0.1">
<path d="M270.854 203.55C270.768 203.443 270.725 203.372 270.725 203.372L270.854 203.55Z" fill="url(#paint0_linear_3_396)"/>
</g>
<path d="M388.024 213.237C387.89 217.758 390.689 219.454 390.689 219.454L416.839 242.648C426.93 246.31 428.177 265.523 428.177 265.523C429.17 267.297 429.595 270.377 429.595 274.039C429.474 285.395 426.271 301.222 426.271 301.222L426.363 301.371L426.271 301.832L426.363 301.981L426.271 302.443C426.772 303.253 427.313 304.037 427.894 304.792C425.059 310.604 419.78 319.959 417.498 321.953C414.344 324.7 408.037 345.133 408.037 345.133L408.243 345.083L408.037 345.743H408.172C406.641 348.703 405.082 352.521 404.749 356.289C404.524 358.761 404.013 361.197 403.225 363.55C402.295 366.284 402.214 369.236 402.991 372.017C403.616 374.242 404.029 376.521 404.224 378.823C404.62 383.26 405.708 387.606 407.449 391.705C410.333 398.568 414.153 407.943 414.351 409.831C414.458 410.853 414.706 412.358 414.989 413.912L414.826 413.955L408.044 429.356C408.044 429.356 406.152 433.614 402.375 433.614C402.007 433.612 401.642 433.688 401.306 433.837C400.969 433.986 400.668 434.205 400.422 434.479C400.176 434.754 399.991 435.077 399.879 435.428C399.768 435.78 399.732 436.151 399.774 436.517C399.724 436.945 399.78 437.379 399.937 437.78V437.823C399.937 437.894 400.001 437.965 400.029 438.036L400.093 438.156C400.128 438.227 400.171 438.291 400.22 438.362L400.305 438.483L400.461 438.674L400.568 438.795L400.752 438.98L400.879 439.1L401.092 439.271L401.248 439.384L401.496 439.54L401.68 439.654L401.957 439.796L402.169 439.902L402.474 440.03L402.715 440.129L403.055 440.243L403.324 440.328L403.707 440.42L404.012 440.491L404.43 440.562L404.763 440.619L405.224 440.669L405.585 440.711H406.095H406.478H407.449H408.122H408.498C408.861 440.711 409.237 440.681 409.624 440.619C421.927 439.398 431.069 429.973 431.069 429.973V429.796V429.618V429.441L431.111 429.391C431.111 429.391 430.318 417.12 425.818 414.345C425.369 412.065 425.132 409.749 425.109 407.425C425.109 398.909 427.632 390.342 420.694 376.311C420.694 376.311 420.375 372.649 422.905 367.162C424.388 364.222 426.03 361.365 427.823 358.603L428.135 358.568L427.632 359.235C427.632 359.235 435.831 358.624 436.462 353.131C436.521 352.674 436.628 352.225 436.781 351.79C438.68 346.268 447.85 338.44 451.918 337.879C456.333 337.269 465.163 347.638 468.635 354.962C468.834 355.381 469.039 355.778 469.245 356.14C472.632 362.109 476.835 360.761 476.835 360.761C476.686 360.583 476.558 360.413 476.424 360.236C476.563 360.218 476.7 360.189 476.835 360.15C476.463 359.699 476.12 359.225 475.807 358.731C478.961 362.152 482.313 365.303 483.772 367.141C486.926 371.109 485.353 373.848 485.353 375.069C485.353 380.569 478.096 396.723 479.988 405.587C480.924 409.966 479.853 415.09 478.528 419.15H478.252C472.887 421.18 472.264 428.461 472.306 432.124C472.306 432.237 472.306 432.351 472.306 432.457C472.306 432.642 472.306 432.819 472.306 432.99V433.103C472.306 433.24 472.306 433.373 472.306 433.501V433.593C472.306 433.735 472.306 433.87 472.306 433.99C472.306 434.118 472.306 434.239 472.306 434.338V434.381V434.594V434.65V434.764V434.842C472.306 434.842 487.443 441.549 500.377 443.359C500.83 443.423 501.262 443.472 501.68 443.508H502.063L502.878 443.557H503.984H504.338C504.586 443.557 504.82 443.557 505.047 443.501H505.273C505.566 443.463 505.843 443.415 506.103 443.359L506.273 443.316C506.471 443.266 506.655 443.224 506.832 443.167L507.066 443.089L507.484 442.926L507.697 442.826C507.825 442.762 507.945 442.699 508.066 442.628L508.257 442.479C508.4 442.385 508.537 442.284 508.668 442.173C508.797 442.062 508.918 441.941 509.029 441.811L509.121 441.698C509.192 441.612 509.258 441.521 509.32 441.428L509.405 441.286C509.457 441.196 509.502 441.106 509.54 441.017L509.603 440.875C509.642 440.772 509.675 440.668 509.703 440.562V440.456C509.733 440.318 509.755 440.178 509.766 440.037C509.766 440.037 509.766 439.987 509.766 439.959C509.772 439.846 509.772 439.732 509.766 439.618C509.766 439.576 509.766 439.526 509.766 439.484C509.951 437.61 508.47 435.743 506.988 436.027C503.835 436.638 499.732 432.975 499.732 432.975L491.107 418.866C490.972 415.566 491.341 411.371 493.424 407.965C497.528 401.258 502.573 386.921 502.573 386.921C502.573 386.921 501.943 378.078 504.466 373.806C506.988 369.533 504.466 362.826 504.466 362.826L496.748 347.922C497.634 347.922 498.165 347.922 498.165 347.922L497.889 347.311H498.165C498.165 347.311 488.705 326.268 484.92 323.827C482.22 322.088 478.408 312.294 476.416 306.793C477.21 306.374 477.65 306.083 477.65 306.083C477.65 306.083 479.861 279.547 479.861 262.79C479.861 246.034 491.199 239.305 491.199 239.305L517.47 223.734C524.407 220.987 525.357 213.975 525.357 213.975L525.279 213.777C525.336 213.514 525.357 213.365 525.357 213.365L525.279 213.166C525.336 212.904 525.357 212.755 525.357 212.755L512.743 180.426C512.743 180.526 512.665 180.611 512.629 180.703C511.736 175.132 508.98 166.409 500.44 165.799C487.826 164.884 483.432 171.292 485.934 171.903C488.435 172.513 499.179 176.786 499.179 176.786L503.431 183.649C503.155 183.556 502.999 183.493 502.999 183.493C503.239 183.586 503.452 183.74 503.615 183.94L503.899 184.394C503.346 184.238 503.006 184.103 503.006 184.103C503.083 184.135 503.157 184.176 503.225 184.224C503.287 184.257 503.347 184.295 503.403 184.337C503.46 184.388 503.514 184.443 503.566 184.5C503.623 184.557 503.677 184.616 503.729 184.678C503.785 184.749 503.835 184.827 503.892 184.905L503.977 185.033C503.65 184.945 503.329 184.841 503.013 184.72C506.315 185.785 507.697 205.849 507.973 210.98L491.639 218.269C491.639 218.269 475.24 218.269 468.302 222.236C462.215 225.714 459.281 222.854 458.657 222.102C459.082 222.646 459.458 223.171 459.784 223.677L459.607 223.557L459.444 223.443L459.309 223.337L459.16 223.209L459.111 223.166C457.677 220.478 456.732 217.556 456.319 214.536C457.093 212.687 457.472 210.697 457.433 208.692C457.394 206.688 456.937 204.714 456.092 202.896C456.358 203.085 456.649 203.235 456.956 203.344C456.247 202.014 455.768 200.575 455.539 199.085C455.383 197.417 455.858 195.643 455.149 194.117C455.074 193.963 454.989 193.813 454.894 193.67C454.894 193.62 454.894 193.564 454.837 193.507C454.129 191.96 452.393 191.108 451.294 189.759C450.585 188.851 450.182 187.744 449.501 186.807C448.639 185.703 447.447 184.905 446.099 184.53C444.751 184.154 443.318 184.221 442.011 184.72C440.976 185.139 440.012 185.842 438.892 185.863C438.313 185.835 437.739 185.735 437.185 185.565C433.713 184.843 430.097 185.521 427.121 187.453C424.221 189.371 421.929 192.08 420.517 195.26C419.752 196.822 419.254 198.501 419.043 200.228C418.96 202.038 418.988 203.851 419.128 205.657C419.191 208.631 418.752 211.754 420.021 214.458C420.099 214.628 420.198 214.777 420.283 214.94C420.283 214.983 420.283 215.026 420.332 215.068C421.537 217.645 424.06 219.327 426.477 220.952L429.602 223.017L429.956 223.251C429.061 223.162 428.161 223.143 427.263 223.195C422.529 223.5 413.09 218.936 413.09 218.936L403.239 210.008L408.044 190.263L407.86 190.398L408.044 189.653L407.86 189.788L408.044 189.043C407.952 189.114 407.867 189.177 407.775 189.241L412.771 181.108C412.771 181.108 423.493 176.849 426.016 176.225C428.539 175.6 424.124 169.213 411.51 170.121C402.226 170.796 399.774 181.044 399.129 186.445C398.583 185.842 398.264 185.402 398.264 185.402L389.42 206.353C388.497 208.321 388.013 210.467 388.003 212.641C388.017 212.847 388.017 213.053 388.024 213.237ZM434.222 223.968C434.925 223.734 435.553 223.318 436.044 222.762C436.836 223.064 437.651 223.301 438.481 223.471C438.256 224.247 437.94 224.992 437.539 225.693C437.418 225.217 437.362 224.926 437.362 224.926C436.334 224.547 435.286 224.225 434.222 223.961V223.968ZM428.886 356.758C429.595 355.615 430.303 354.501 431.012 353.451C430.403 354.572 429.595 355.793 428.886 356.758Z" fill="url(#paint1_linear_3_396)"/>
<path d="M493.29 344.061L502.325 362.159C502.325 362.159 504.735 368.795 502.325 373.018C499.916 377.241 500.518 385.991 500.518 385.991C500.518 385.991 495.699 400.186 491.78 406.808C487.861 413.429 490.271 423.131 490.271 423.131L474.609 424.941C474.609 424.941 480.633 413.174 478.861 404.423C477.09 395.672 483.985 379.696 483.985 374.253C483.985 373.046 485.494 370.328 482.476 366.41C479.457 362.492 468.019 352.535 468.302 346.8L493.29 344.061Z" fill="#F7BBC3"/>
<path d="M413.465 339.838C413.465 339.838 407.683 347.858 407.009 355.665C406.807 358.102 406.331 360.509 405.592 362.84C404.702 365.55 404.624 368.461 405.365 371.215C405.962 373.419 406.356 375.674 406.542 377.95C406.913 382.34 407.95 386.648 409.617 390.725C412.374 397.517 415.995 406.786 416.208 408.653C416.513 411.669 418.015 418.909 418.015 418.909L430.062 423.437C430.062 423.437 426.448 414.686 426.448 406.24C426.448 397.794 428.858 389.349 422.196 375.466C422.196 375.466 421.891 371.847 424.322 366.417C426.753 360.988 436.072 346.808 436.072 346.808L413.465 339.838Z" fill="#F7BBC3"/>
<path opacity="0.1" d="M432.94 350.597C433.932 351.676 428.822 358.546 428.822 358.546C428.822 358.546 436.653 357.943 437.255 352.514C437.312 352.062 437.414 351.618 437.56 351.187C439.374 345.729 448.133 337.986 452.017 337.432C456.269 336.829 464.667 347.084 467.983 354.324C468.175 354.742 468.366 355.126 468.564 355.488C471.803 361.392 475.814 360.058 475.814 360.058C473.688 357.432 473.249 355.353 473.915 353.671C476.551 347.162 496.295 347.354 496.295 347.354C496.295 347.354 487.259 326.538 483.645 324.125C480.031 321.712 474.305 303.607 474.305 303.607C474.305 303.607 431.225 298.78 430.927 300.888C430.629 302.996 422.189 319.597 419.177 322.308C416.165 325.019 410.149 345.246 410.149 345.246C420.389 342.23 431.685 349.618 432.89 350.527L432.94 350.597Z" fill="black"/>
<path d="M432.94 349.994C433.932 351.073 428.822 357.943 428.822 357.943C428.822 357.943 436.653 357.34 437.255 351.911C437.312 351.459 437.414 351.014 437.56 350.583C439.374 345.126 448.133 337.382 452.017 336.829C456.269 336.226 464.667 346.481 467.983 353.72C468.175 354.139 468.366 354.522 468.564 354.884C471.803 360.789 475.814 359.455 475.814 359.455C473.688 356.829 473.249 354.749 473.915 353.067C476.551 346.559 496.295 346.751 496.295 346.751C496.295 346.751 487.259 325.935 483.645 323.521C480.031 321.108 474.305 303.003 474.305 303.003C474.305 303.003 431.225 298.177 430.927 300.285C430.629 302.393 422.189 318.993 419.177 321.705C416.165 324.416 410.142 344.636 410.142 344.636C420.382 341.619 431.678 349.008 432.883 349.916L432.94 349.994Z" fill="#565171"/>
<path opacity="0.1" d="M489.527 417.525L497.811 431.556C497.811 431.556 501.73 435.176 504.742 434.572C507.754 433.969 510.766 443.018 498.413 441.208C486.061 439.398 471.605 432.762 471.605 432.762C471.605 432.762 470.251 420.541 477.175 417.858L489.527 417.525Z" fill="black"/>
<path opacity="0.1" d="M416.626 412.67L410.149 427.908C410.149 427.908 408.342 432.166 404.728 432.166C401.113 432.166 399.909 439.711 411.658 438.504C423.408 437.298 432.146 427.943 432.146 427.943C432.146 427.943 431.239 413.465 425.818 412.557C422.777 411.978 419.651 412.016 416.626 412.67Z" fill="black"/>
<path d="M489.527 418.128L497.811 432.159C497.811 432.159 501.73 435.779 504.742 435.176C507.754 434.572 510.766 443.621 498.413 441.811C486.061 440.002 471.605 433.366 471.605 433.366C471.605 433.366 470.251 421.144 477.175 418.461L489.527 418.128Z" fill="#B77983"/>
<path d="M416.626 413.302L410.149 428.54C410.149 428.54 408.342 432.798 404.728 432.798C401.113 432.798 399.909 440.342 411.658 439.136C423.408 437.929 432.146 428.575 432.146 428.575C432.146 428.575 431.239 414.097 425.818 413.188C422.777 412.609 419.651 412.648 416.626 413.302Z" fill="#B77983"/>
<g opacity="0.1">
<path d="M432.429 300.321C432.125 302.45 423.692 319.029 420.68 321.74C417.916 324.231 412.608 341.485 411.758 344.281C411.212 344.387 410.673 344.508 410.135 344.664C410.135 344.664 416.158 324.451 419.17 321.733C422.182 319.015 430.615 302.421 430.92 300.313C430.977 299.895 432.741 299.746 435.512 299.788C433.641 299.824 432.486 299.98 432.429 300.321Z" fill="black"/>
<path d="M453.526 336.822C457.778 336.218 466.176 346.474 469.493 353.713C469.684 354.132 469.875 354.515 470.074 354.877C471.945 358.284 474.064 359.277 475.531 359.512C474.56 359.689 471.279 359.838 468.564 354.877C468.366 354.515 468.175 354.132 467.983 353.713C464.943 347.07 457.601 337.9 453.151 336.893L453.526 336.822Z" fill="black"/>
<path d="M432.94 349.994L432.89 349.945C431.919 349.235 424.386 344.267 416.13 343.962C424.953 343.656 433.365 349.171 434.4 349.945L434.449 349.994C435.321 350.945 431.48 356.382 430.537 357.659C429.974 357.787 429.404 357.88 428.829 357.936C428.829 357.936 433.932 351.073 432.94 349.994Z" fill="black"/>
</g>
<path d="M510.461 186.58C510.461 186.58 510.461 168.177 498.413 167.268C486.366 166.36 482.114 172.698 484.559 173.301C487.004 173.904 497.209 178.127 497.209 178.127L503.835 189.291L510.461 186.58Z" fill="#F7BBC3"/>
<path d="M401.411 190.803C401.411 190.803 401.411 172.4 413.458 171.491C425.506 170.583 429.758 176.92 427.313 177.524C424.868 178.127 414.663 182.35 414.663 182.35L408.037 193.514L401.411 190.803Z" fill="#F7BBC3"/>
<path d="M455.936 209.809C455.936 209.809 455.029 221.875 462.562 228.816C470.095 235.757 445.093 244.501 445.093 244.501L433.946 231.229C433.946 231.229 442.981 225.799 438.198 216.445L455.936 209.809Z" fill="#F7BBC3"/>
<path opacity="0.1" d="M458.345 223.989C458.345 223.989 461.06 228.248 467.686 224.295C474.312 220.341 489.98 220.334 489.98 220.334L505.642 213.095C505.642 213.095 504.437 187.148 500.823 185.941C500.823 185.941 508.051 188.957 510.163 182.925L522.211 214.905C522.211 214.905 521.304 221.846 514.677 224.557L489.676 239.944C489.676 239.944 478.833 246.58 478.833 263.173C478.833 279.767 476.707 306.013 476.707 306.013C476.707 306.013 441.763 327.134 427.603 302.393C427.603 302.393 433.329 273.131 429.41 265.885C429.41 265.885 428.206 246.878 418.568 243.259L393.58 220.334C393.58 220.334 388.761 217.318 392.375 208.567L400.809 187.751C400.809 187.751 405.932 194.99 410.149 191.37L405.33 211.889L414.968 220.938C414.968 220.938 424.003 225.466 428.525 225.196C433.046 224.926 438.163 227.006 438.163 227.006C438.163 227.006 440.289 239.071 449.912 237.865C449.912 237.865 468.288 236.963 458.345 223.989Z" fill="black"/>
<path opacity="0.1" d="M458.345 222.783C458.345 222.783 461.06 227.041 467.686 223.088C474.312 219.135 489.98 219.163 489.98 219.163L505.642 211.924C505.642 211.924 504.437 185.977 500.823 184.77C500.823 184.77 508.051 187.786 510.163 181.754L522.211 213.734C522.211 213.734 521.303 220.675 514.677 223.386L489.676 238.787C489.676 238.787 478.833 245.423 478.833 262.017C478.833 278.61 476.707 304.856 476.707 304.856C476.707 304.856 441.763 325.977 427.603 301.236C427.603 301.236 433.329 271.974 429.41 264.728C429.41 264.728 428.206 245.721 418.568 242.102L393.566 219.17C393.566 219.17 388.747 216.154 392.361 207.403L400.794 186.587C400.794 186.587 405.918 193.826 410.135 190.207L405.316 210.725L414.954 219.774C414.954 219.774 423.989 224.302 428.51 224.032C433.032 223.762 438.148 225.842 438.148 225.842C438.148 225.842 440.274 237.907 449.898 236.701C449.912 236.658 468.288 235.757 458.345 222.783Z" fill="black"/>
<path d="M393.58 219.767L418.582 242.698C428.22 246.317 429.425 265.324 429.425 265.324C433.344 272.563 427.618 301.832 427.618 301.832C441.791 326.573 476.721 305.452 476.721 305.452C476.721 305.452 476.792 304.586 476.905 303.06C477.005 301.726 477.139 299.88 477.288 297.687C477.487 294.849 477.713 291.421 477.926 287.702C478.401 279.575 478.833 270.107 478.833 262.613C478.833 246.019 489.676 239.383 489.676 239.383L508.434 227.843L514.685 223.997C521.311 221.278 522.218 214.344 522.218 214.344L510.17 182.364C508.2 187.999 501.758 185.735 500.922 185.416C504.466 187.02 505.649 212.535 505.649 212.535L489.987 219.774C489.987 219.774 474.326 219.774 467.693 223.698C462.023 227.034 459.252 224.479 458.544 223.635C468.068 236.41 449.919 237.268 449.919 237.268C440.281 238.475 438.17 226.41 438.17 226.41C438.17 226.41 433.046 224.28 428.532 224.6C424.018 224.919 414.975 220.341 414.975 220.341L405.337 211.292L410.156 190.774C405.904 194.394 400.816 187.155 400.816 187.155L392.383 207.971C388.761 216.75 393.58 219.767 393.58 219.767Z" fill="#B45181"/>
<path opacity="0.1" d="M455.936 211.016C455.847 212.913 455.944 214.815 456.226 216.694C454.916 219.963 452.481 222.656 449.363 224.287C446.244 225.917 442.646 226.378 439.218 225.586C439.902 222.907 439.519 220.067 438.148 217.666L455.936 211.016Z" fill="black"/>
<path d="M442.535 224.749C450.688 224.749 457.297 218.13 457.297 209.965C457.297 201.801 450.688 195.182 442.535 195.182C434.382 195.182 427.773 201.801 427.773 209.965C427.773 218.13 434.382 224.749 442.535 224.749Z" fill="#F7BBC3"/>
<path opacity="0.1" d="M442.769 201.555C442.896 203.053 443.003 204.649 442.315 205.984C441.933 206.655 441.455 207.267 440.898 207.801L437.808 210.987C436.834 211.845 436.078 212.923 435.604 214.131C434.711 217.112 437.348 220.072 437.263 223.188C436.79 223.929 436.088 224.496 435.264 224.801C434.44 225.106 433.539 225.132 432.699 224.877C432.017 224.615 431.375 224.259 430.792 223.819L427.766 221.754C425.463 220.178 423.054 218.475 421.899 215.934C420.687 213.258 421.098 210.164 421.041 207.226C420.909 205.438 420.883 203.644 420.963 201.853C421.165 200.145 421.644 198.481 422.38 196.928C423.715 193.82 425.902 191.155 428.688 189.241C430.082 188.299 431.651 187.648 433.303 187.328C434.954 187.007 436.652 187.023 438.297 187.375C438.826 187.541 439.374 187.639 439.927 187.666C440.997 187.666 441.918 186.956 442.904 186.537C444.156 186.047 445.536 185.984 446.828 186.357C448.12 186.73 449.254 187.52 450.054 188.603C450.706 189.525 451.082 190.625 451.762 191.52C452.775 192.854 454.426 193.698 455.114 195.224C455.801 196.75 455.341 198.496 455.489 200.143C455.701 201.614 456.154 203.041 456.829 204.366C455.156 203.784 454.341 201.953 453.285 200.547C452.449 199.504 451.4 198.652 450.209 198.047C449.017 197.443 447.71 197.1 446.376 197.041C445.455 196.999 443.747 196.928 443.017 197.63C442.089 198.532 442.677 200.462 442.769 201.555Z" fill="black"/>
<path d="M442.471 200.952C442.599 202.449 442.705 204.046 442.018 205.38C441.635 206.051 441.158 206.663 440.6 207.197L437.468 210.398C436.497 211.25 435.741 212.32 435.264 213.521C434.371 216.502 437.007 219.461 436.922 222.577C436.45 223.319 435.748 223.885 434.924 224.19C434.1 224.495 433.199 224.522 432.359 224.266C431.677 224.005 431.035 223.649 430.452 223.209L427.469 221.172C425.166 219.596 422.756 217.893 421.601 215.352C420.389 212.676 420.8 209.582 420.743 206.644C420.611 204.856 420.585 203.062 420.666 201.271C420.868 199.563 421.346 197.899 422.083 196.346C423.417 193.238 425.604 190.573 428.39 188.659C429.784 187.717 431.354 187.066 433.005 186.746C434.656 186.425 436.355 186.441 438 186.793C438.528 186.959 439.076 187.057 439.629 187.084C440.7 187.084 441.621 186.374 442.606 185.955C443.859 185.465 445.238 185.402 446.53 185.775C447.823 186.148 448.956 186.938 449.756 188.021C450.408 188.943 450.784 190.043 451.464 190.938C452.478 192.272 454.129 193.116 454.816 194.642C455.504 196.168 455.043 197.914 455.192 199.561C455.404 201.032 455.856 202.459 456.531 203.784C454.859 203.202 454.044 201.371 452.988 199.965C452.151 198.922 451.102 198.07 449.911 197.465C448.719 196.861 447.413 196.518 446.078 196.459C445.157 196.417 443.449 196.346 442.719 197.048C441.784 197.928 442.351 199.852 442.471 200.952Z" fill="#74585E"/>
<g opacity="0.1">
<path d="M458.474 223.557C458.388 223.45 458.345 223.386 458.345 223.386L458.474 223.557Z" fill="black"/>
<path d="M407.463 191.811C408.454 191.831 409.415 191.47 410.149 190.803L409.858 192.023C409.056 192.185 408.224 192.111 407.463 191.811Z" fill="black"/>
<path d="M460.868 225.118C468.416 236.722 451.422 237.567 451.422 237.567C450.127 237.745 448.809 237.651 447.552 237.29C448.336 237.382 449.128 237.382 449.912 237.29C449.912 237.29 468.125 236.388 458.473 223.578C459.102 224.317 459.935 224.853 460.868 225.118Z" fill="black"/>
<path d="M430.034 224.898C428.812 224.929 427.593 224.783 426.413 224.465C427.114 224.587 427.827 224.632 428.539 224.6C430.415 224.52 432.293 224.709 434.116 225.161C432.77 224.915 431.4 224.827 430.034 224.898Z" fill="black"/>
<path d="M392.375 207.999L400.809 187.183C401.148 187.645 401.512 188.089 401.9 188.51L393.885 208.269C390.271 217.02 395.09 220.036 395.09 220.036L420.092 242.968C429.729 246.587 430.934 265.594 430.934 265.594C434.853 272.833 429.127 302.102 429.127 302.102C432.926 308.738 438.219 312.038 443.938 313.401C437.652 312.329 431.756 309.015 427.639 301.797C427.639 301.797 433.365 272.535 429.446 265.288C429.446 265.288 428.241 246.282 418.603 242.662L393.58 219.767C393.58 219.767 388.761 216.75 392.375 207.999Z" fill="black"/>
<path d="M500.823 185.373C501.441 185.612 502.079 185.795 502.729 185.92C506.032 188.823 507.144 212.826 507.144 212.826L491.483 220.065C491.483 220.065 475.821 220.065 469.188 223.989C465.942 225.913 463.639 225.877 462.101 225.345C463.519 225.43 465.34 225.054 467.65 223.691C474.276 219.767 489.945 219.767 489.945 219.767L505.606 212.527C505.606 212.527 504.437 186.58 500.823 185.373Z" fill="black"/>
<path d="M503.452 186.04C505.741 186.339 508.888 186.005 510.163 182.357L510.872 184.238C508.895 187.048 505.28 186.53 503.452 186.04Z" fill="black"/>
</g>
<path opacity="0.1" d="M477.926 287.694C478.401 279.568 478.833 270.1 478.833 262.606C478.833 246.012 489.676 239.376 489.676 239.376L508.434 227.836C497.521 230.675 483 235.565 481.696 241.321C479.57 250.675 475.672 251.577 477.175 267.581C477.798 274.266 478.048 280.981 477.926 287.694Z" fill="black"/>
<path opacity="0.1" d="M475.063 310.725C475.063 310.725 472.349 319.171 479.882 324.6Z" fill="black"/>
<path opacity="0.1" d="M432.89 310.725C432.89 310.725 431.983 317.063 428.369 319.476Z" fill="black"/>
<path opacity="0.1" d="M471.605 432.159C471.605 432.159 486.061 438.795 498.413 440.605C504.678 441.52 506.988 439.647 507.35 437.66C507.761 439.98 505.932 442.919 498.413 441.811C486.061 440.002 471.605 433.366 471.605 433.366C471.512 432.363 471.479 431.356 471.505 430.349C471.527 431.449 471.605 432.159 471.605 432.159Z" fill="black"/>
<path opacity="0.1" d="M411.354 438.49C423.103 437.283 431.841 427.929 431.841 427.929C431.841 427.929 431.395 420.789 429.255 416.226C431.657 420.733 432.146 428.532 432.146 428.532C432.146 428.532 423.408 437.887 411.658 439.093C405.656 439.711 403.034 438.043 402.389 436.254C403.374 437.794 406.039 439.036 411.354 438.49Z" fill="black"/>
<path d="M425.484 129.142C425.482 135.447 427.715 141.548 431.785 146.358C435.855 151.168 441.498 154.375 447.708 155.408C453.919 156.44 460.294 155.231 465.697 151.995C471.101 148.759 475.182 143.708 477.213 137.74C479.245 131.772 479.094 125.276 476.79 119.409C474.485 113.541 470.175 108.684 464.628 105.702C459.081 102.72 452.657 101.807 446.501 103.126C440.345 104.445 434.856 107.91 431.012 112.903C427.43 117.557 425.487 123.266 425.484 129.142Z" fill="url(#paint2_linear_3_396)"/>
<path d="M426.462 129.142C426.454 135.218 428.6 141.099 432.518 145.739C436.436 150.378 441.872 153.472 447.856 154.472C453.841 155.471 459.985 154.309 465.194 151.194C470.403 148.079 474.338 143.213 476.298 137.462C478.258 131.712 478.115 125.452 475.896 119.797C473.676 114.142 469.523 109.46 464.178 106.586C458.833 103.712 452.642 102.832 446.709 104.104C440.777 105.375 435.487 108.715 431.785 113.528C428.341 118.003 426.47 123.492 426.462 129.142Z" fill="#E0E0E0"/>
<path d="M437.716 116.544V126.494" stroke="#535461" stroke-miterlimit="10"/>
<path d="M456.694 125.607L446.326 132.463" stroke="#535461" stroke-miterlimit="10"/>
<path d="M446.326 110.362L458.466 115.444" stroke="#535461" stroke-miterlimit="10"/>
<path d="M466.631 127.374L465.964 142.847" stroke="#535461" stroke-miterlimit="10"/>
<path d="M458.466 147.488L444.781 140.639" stroke="#535461" stroke-miterlimit="10"/>
<path d="M437.716 141.746V150.384" stroke="#535461" stroke-miterlimit="10"/>
<path d="M432.642 135.111L426.675 132.463" stroke="#535461" stroke-miterlimit="10"/>
<path d="M465.964 114.557L465.51 107.325" stroke="#535461" stroke-miterlimit="10"/>
<path d="M469.939 122.96L477.338 125.075" stroke="#535461" stroke-miterlimit="10"/>
<path d="M471.923 122.96L466.19 113.01L456.701 114.557V125.607L466.849 130.916L471.923 122.96Z" fill="#764FD0"/>
<path d="M431.785 113.499L437.723 116.544C439.707 113.89 447.871 110.795 447.871 110.795L447.021 104.003C440.963 105.221 435.551 108.594 431.785 113.499Z" fill="#764FD0"/>
<path d="M447.871 131.356L437.496 126.494L431.756 134.67L437.716 144.174L447.871 142.627V131.356Z" fill="#764FD0"/>
<path d="M456.694 146.161V154.33C460.018 153.718 463.187 152.452 466.02 150.607C468.853 148.761 471.293 146.372 473.199 143.578L465.964 140.604L456.694 146.161Z" fill="#764FD0"/>
<path d="M76.8905 317.645C76.8906 322.935 78.766 328.053 82.1825 332.087C85.5989 336.121 90.3346 338.809 95.5456 339.673C100.757 340.536 106.105 339.519 110.636 336.802C115.168 334.085 118.59 329.845 120.291 324.837C121.993 319.829 121.864 314.379 119.927 309.458C117.991 304.536 114.372 300.464 109.717 297.965C105.062 295.466 99.6715 294.704 94.5072 295.813C89.3429 296.923 84.7398 299.834 81.5181 304.025C78.5169 307.929 76.8899 312.718 76.8905 317.645Z" fill="url(#paint3_linear_3_396)"/>
<path d="M77.7126 317.645C77.7138 322.739 79.5209 327.668 82.812 331.553C86.103 335.437 90.6643 338.026 95.6831 338.856C100.702 339.687 105.852 338.707 110.216 336.09C114.581 333.472 117.876 329.389 119.514 324.566C121.152 319.742 121.027 314.494 119.162 309.754C117.297 305.014 113.812 301.092 109.328 298.685C104.845 296.279 99.6536 295.545 94.6799 296.614C89.7063 297.683 85.2731 300.485 82.1701 304.522C79.2787 308.284 77.7114 312.898 77.7126 317.645Z" fill="#E0E0E0"/>
<path d="M87.152 307.077V315.423" stroke="#535461" stroke-miterlimit="10"/>
<path d="M103.069 314.678L94.3663 320.427" stroke="#535461" stroke-miterlimit="10"/>
<path d="M94.3663 301.889L104.55 306.154" stroke="#535461" stroke-miterlimit="10"/>
<path d="M111.396 316.162L110.843 329.142" stroke="#535461" stroke-miterlimit="10"/>
<path d="M104.55 333.032L93.0694 327.283" stroke="#535461" stroke-miterlimit="10"/>
<path d="M87.152 328.213V335.459" stroke="#535461" stroke-miterlimit="10"/>
<path d="M82.8929 322.648L77.8897 320.427" stroke="#535461" stroke-miterlimit="10"/>
<path d="M110.843 305.409L110.46 299.348" stroke="#535461" stroke-miterlimit="10"/>
<path d="M114.174 312.457L120.381 314.231" stroke="#535461" stroke-miterlimit="10"/>
<path d="M115.839 312.457L111.027 304.118L103.069 305.409V314.678L111.58 319.128L115.839 312.457Z" fill="#764FD0"/>
<path d="M82.1701 304.522L87.1308 307.077C88.7961 304.856 95.6348 302.258 95.6348 302.258L94.9261 296.58C89.8571 297.601 85.3271 300.421 82.1701 304.522Z" fill="#764FD0"/>
<path d="M95.6631 319.497L86.9678 315.423L82.1488 322.279L87.152 330.25L95.6631 328.951V319.497Z" fill="#764FD0"/>
<path d="M103.069 331.917V338.795C105.856 338.281 108.514 337.219 110.89 335.671C113.265 334.122 115.311 332.118 116.909 329.774L110.843 327.283L103.069 331.917Z" fill="#764FD0"/>
<path d="M60.5203 344.48C60.5204 349.769 62.3958 354.887 65.8122 358.921C69.2287 362.956 73.9644 365.644 79.1754 366.508C84.3864 367.371 89.7343 366.354 94.2662 363.637C98.7981 360.92 102.22 356.68 103.921 351.672C105.623 346.664 105.494 341.214 103.557 336.293C101.62 331.371 98.0021 327.298 93.3467 324.799C88.6913 322.301 83.3013 321.538 78.137 322.648C72.9727 323.758 68.3696 326.668 65.1479 330.86C62.1467 334.764 60.5196 339.553 60.5203 344.48Z" fill="url(#paint4_linear_3_396)"/>
<path d="M61.3423 344.48C61.3435 349.574 63.1507 354.503 66.4417 358.387C69.7328 362.272 74.294 364.86 79.3128 365.691C84.3316 366.522 89.4819 365.542 93.8462 362.924C98.2105 360.307 101.505 356.223 103.144 351.4C104.782 346.577 104.657 341.328 102.792 336.589C100.926 331.849 97.4415 327.927 92.958 325.52C88.4744 323.114 83.2833 322.38 78.3097 323.448C73.336 324.517 68.9028 327.32 65.7998 331.357C62.9085 335.118 61.3412 339.733 61.3423 344.48Z" fill="#E0E0E0"/>
<path d="M70.7818 333.912V342.251" stroke="#535461" stroke-miterlimit="10"/>
<path d="M86.6985 341.513L78.0031 347.262" stroke="#535461" stroke-miterlimit="10"/>
<path d="M78.0031 328.724L88.1796 332.989" stroke="#535461" stroke-miterlimit="10"/>
<path d="M95.026 342.996L94.4726 355.97" stroke="#535461" stroke-miterlimit="10"/>
<path d="M88.1796 359.866L76.7062 354.118" stroke="#535461" stroke-miterlimit="10"/>
<path d="M70.7818 355.047V362.294" stroke="#535461" stroke-miterlimit="10"/>
<path d="M66.5227 349.483L61.5195 347.262" stroke="#535461" stroke-miterlimit="10"/>
<path d="M94.4731 332.244L94.0899 326.183" stroke="#535461" stroke-miterlimit="10"/>
<path d="M97.8033 339.292L104.011 341.066" stroke="#535461" stroke-miterlimit="10"/>
<path d="M99.4687 339.292L94.6568 330.945L86.6985 332.244V341.513L95.2167 345.963L99.4687 339.292Z" fill="#764FD0"/>
<path d="M65.7999 331.357L70.7605 333.912C72.4259 331.69 79.2646 329.093 79.2646 329.093L78.5559 323.415C73.4869 324.436 68.9568 327.256 65.7999 331.357Z" fill="#764FD0"/>
<path d="M79.2929 346.332L70.5975 342.251L65.7857 349.114L70.7818 357.084L79.2929 355.786V346.332Z" fill="#764FD0"/>
<path d="M86.6985 358.731V365.608C89.4847 365.096 92.1421 364.036 94.5175 362.49C96.8929 360.945 98.9393 358.943 100.539 356.602L94.4726 354.111L86.6985 358.731Z" fill="#764FD0"/>
</g>
<defs>
<linearGradient id="paint0_linear_3_396" x1="270.761" y1="203.55" x2="270.761" y2="203.372" gradientUnits="userSpaceOnUse">
<stop stop-color="#808080" stop-opacity="0.25"/>
<stop offset="0.54" stop-color="#808080" stop-opacity="0.12"/>
<stop offset="1" stop-color="#808080" stop-opacity="0.1"/>
</linearGradient>
<linearGradient id="paint1_linear_3_396" x1="456.687" y1="443.579" x2="456.687" y2="165.693" gradientUnits="userSpaceOnUse">
<stop stop-color="#808080" stop-opacity="0.25"/>
<stop offset="0.54" stop-color="#808080" stop-opacity="0.12"/>
<stop offset="1" stop-color="#808080" stop-opacity="0.1"/>
</linearGradient>
<linearGradient id="paint2_linear_3_396" x1="452.06" y1="155.756" x2="452.06" y2="102.527" gradientUnits="userSpaceOnUse">
<stop stop-color="#808080" stop-opacity="0.25"/>
<stop offset="0.54" stop-color="#808080" stop-opacity="0.12"/>
<stop offset="1" stop-color="#808080" stop-opacity="0.1"/>
</linearGradient>
<linearGradient id="paint3_linear_3_396" x1="99.1781" y1="339.966" x2="99.1781" y2="295.324" gradientUnits="userSpaceOnUse">
<stop stop-color="#808080" stop-opacity="0.25"/>
<stop offset="0.54" stop-color="#808080" stop-opacity="0.12"/>
<stop offset="1" stop-color="#808080" stop-opacity="0.1"/>
</linearGradient>
<linearGradient id="paint4_linear_3_396" x1="82.815" y1="366.801" x2="82.815" y2="322.159" gradientUnits="userSpaceOnUse">
<stop stop-color="#808080" stop-opacity="0.25"/>
<stop offset="0.54" stop-color="#808080" stop-opacity="0.12"/>
<stop offset="1" stop-color="#808080" stop-opacity="0.1"/>
</linearGradient>
<clipPath id="clip0_3_396">
<rect width="811" height="567" fill="white"/>
</clipPath>
</defs>
</svg>
